<?xml version="1.0" encoding="utf-8"?>
<!-- Generator: Adobe Illustrator 26.0.1, SVG Export Plug-In . SVG Version: 6.00 Build 0)  -->
<svg version="1.1" id="Layer_1" xmlns:serif="http://www.serif.com/"
	 xmlns="http://www.w3.org/2000/svg" xmlns:xlink="http://www.w3.org/1999/xlink" x="0px" y="0px" viewBox="0 0 556.9 502.6"
	 style="enable-background:new 0 0 556.9 502.6;" xml:space="preserve">
<style type="text/css">
	.st0{fill:#FF3E00;}
	.st1{fill:#FFFFFF;}
</style>
<g>
	<g>
		<path class="st0" d="M140.6,27.8c-9.8-9.7-25.5-9.7-35.3,0.1l-98,98.4c-0.6,0.6-1.1,1.3-1.6,2c-0.5,0.6-1.1,1.2-1.5,1.9
			c-0.5,0.8-0.9,1.6-1.3,2.4c-0.3,0.6-0.7,1.2-1,1.9c-0.4,0.9-0.5,1.8-0.8,2.6c-0.2,0.7-0.4,1.3-0.6,2c-0.2,0.9-0.2,1.8-0.3,2.7
			c0,0.7-0.2,1.4-0.2,2c0,0.9,0.2,1.8,0.2,2.6c0.1,0.7,0.1,1.4,0.2,2.1c0.2,0.8,0.5,1.6,0.7,2.5c0.2,0.7,0.4,1.5,0.6,2.2
			c0.3,0.8,0.8,1.6,1.3,2.4c0.3,0.6,0.6,1.3,1,1.9c0.5,0.8,1.3,1.6,1.9,2.3c0.4,0.5,0.8,1.1,1.2,1.5l0.1,0.1l0,0l0,0l98,98.3
			c4.9,4.9,11.3,7.3,17.7,7.3c6.4,0,12.7-2.4,17.6-7.3c9.8-9.7,9.8-25.5,0.1-35.2l-80.5-80.8l80.5-80.9
			C150.3,53.3,150.3,37.5,140.6,27.8z"/>
		<path class="st0" d="M553.8,155.7c0.5-0.8,1-1.7,1.3-2.5c0.3-0.6,0.4-1.3,0.6-2c0.3-0.9,0.6-1.7,0.8-2.6c0.2-0.7,0.2-1.5,0.2-2.3
			c0.1-0.8,0.2-1.7,0.2-2.5s-0.2-1.7-0.2-2.5c-0.1-0.7-0.1-1.5-0.2-2.2c-0.2-0.9-0.5-1.8-0.8-2.7c-0.2-0.6-0.3-1.3-0.6-1.9
			c-0.4-1-0.9-1.9-1.4-2.8c-0.3-0.5-0.5-1.1-0.8-1.6c-0.6-0.9-1.3-1.7-2-2.5c-0.4-0.5-0.7-1-1.1-1.4l-0.1-0.1l0,0l0,0l-98-98.4
			c-9.7-9.8-25.5-9.8-35.2-0.1c-9.8,9.7-9.8,25.5-0.1,35.3l80.5,80.9l-80.5,80.8c-9.7,9.7-9.7,25.5,0.1,35.2
			c4.9,4.8,11.2,7.3,17.6,7.3s12.8-2.5,17.7-7.3l98.1-98.4c0.5-0.5,1-1.2,1.4-1.8c0.6-0.7,1.2-1.4,1.7-2.1
			C553.3,156.9,553.5,156.3,553.8,155.7L553.8,155.7z"/>
		<g>
			<path class="st0" d="M383.9,38.1c-26.6-38.3-79.5-49.5-117.5-25.4l-67,42.9c-18.3,11.5-31,30.2-34.6,51.4
				c-3.2,17.8-0.5,36.1,8,51.9c-5.9,8.8-9.8,18.5-11.5,28.8c-3.9,21.7,1.2,44.1,13.9,61.9c26.8,38.3,79.5,49.5,117.5,25.4l67-42.7
				c18.3-11.5,31-30.2,34.6-51.4c3.2-17.8,0.5-36.1-8-51.9c5.9-8.8,9.8-18.5,11.5-28.8C401.9,78.3,396.8,55.9,383.9,38.1"/>
			<path class="st1" d="M259.8,253.3c-21.7,5.6-44.4-2.9-57-21.2c-7.8-10.7-10.7-24.1-8.5-37.3c0.5-2.2,1-4.1,1.5-6.3l1.2-3.9
				l3.4,2.4c8,5.9,16.8,10.2,26.3,13.2l2.4,0.7l-0.2,2.4c-0.2,3.4,0.7,7.1,2.7,10c3.9,5.6,10.7,8.3,17.3,6.6c1.5-0.5,2.9-1,4.1-1.7
				l66.8-42.7c3.4-2.2,5.6-5.4,6.3-9.3c0.7-3.9-0.2-8-2.4-11.2c-3.9-5.6-10.7-8-17.3-6.3c-1.5,0.5-2.9,1-4.1,1.7l-25.6,16.3
				c-4.1,2.7-8.8,4.6-13.7,5.8c-21.7,5.6-44.4-2.9-57-21.2c-7.6-10.7-10.7-24.1-8.3-37.3c2.2-12.7,10-24.1,21-31l67-42.7
				c4.1-2.7,8.8-4.6,13.7-6.1c21.7-5.6,44.4,2.9,57,21.2c7.8,10.7,10.7,24.1,8.5,37.3c-0.5,2.2-1,4.1-1.7,6.3l-1.2,3.9l-3.4-2.4
				c-8-5.9-16.8-10.2-26.3-13.2l-2.4-0.7l0.2-2.4c0.2-3.4-0.7-7.1-2.7-10c-3.9-5.6-10.7-8-17.3-6.3c-1.5,0.5-2.9,1-4.1,1.7
				l-66.8,42.7c-3.4,2.2-5.6,5.4-6.3,9.3c-0.7,3.9,0.2,8,2.4,11.2c3.9,5.6,10.7,8,17.3,6.3c1.5-0.5,2.9-1,4.1-1.7l25.6-16.3
				c4.1-2.7,8.8-4.6,13.7-6.1c21.7-5.6,44.4,2.9,57,21.2c7.8,10.7,10.7,24.1,8.5,37.3c-2.2,12.7-10,24.1-21,31l-67,42.7
				C269.3,249.9,264.7,251.9,259.8,253.3"/>
		</g>
	</g>
	<g>
		<path class="st0" d="M15.3,457.8c-4.9,0-8.7-1.3-11.4-4c-2.6-2.7-4-6.6-4-11.7v-92.9c0-5.1,1.2-8.9,3.8-11.6c2.6-2.6,6.1-4,10.7-4
			c4.6,0,8.2,1.3,10.7,4s3.8,6.5,3.8,11.6v15.5h-2.4c2.3-9.8,6.6-17.3,13.2-22.4c6.5-5.1,15.2-8.1,26.1-9.1c3.3-0.3,6,0.5,8,2.6
			s3.1,5.2,3.5,9.5c0.3,4.1-0.6,7.4-2.7,10c-2.2,2.6-5.4,4-9.7,4.5l-5.3,0.5c-9.7,1-17,4-21.9,9.3c-4.9,5.1-7.4,12.5-7.4,21.8v50.9
			c0,5.1-1.2,8.9-3.8,11.7C24,456.5,20.3,457.8,15.3,457.8z"/>
		<path class="st0" d="M149.4,458.4c-13.2,0-24.6-2.6-34.2-7.6c-9.6-5.1-17-12.3-22.1-21.6c-5.2-9.3-7.8-20.4-7.8-33.2
			c0-12.5,2.5-23.3,7.5-32.7c5-9.3,12-16.7,20.8-22c8.9-5.3,18.9-8,30.2-8c8.2,0,15.7,1.4,22.3,4.2c6.6,2.8,12.3,6.8,17,12.1
			c4.7,5.2,8.2,11.6,10.7,19.1c2.5,7.5,3.7,15.9,3.7,25.2c0,3-1,5.2-3,6.8c-2,1.6-4.8,2.3-8.5,2.3h-76.7v-17.7h67.2l-3.8,3.7
			c0-7.5-1.1-13.9-3.2-18.9c-2.2-5.1-5.3-8.9-9.3-11.7c-4-2.7-9.1-4-15.2-4c-6.7,0-12.4,1.6-17.1,4.8c-4.7,3.2-8.2,7.7-10.7,13.5
			c-2.5,5.8-3.7,12.8-3.7,20.8v1.7c0,13.5,3,23.5,9.2,30.1c6.1,6.6,15.2,10,27.1,10c4.1,0,8.8-0.5,14-1.6c5.1-1.1,10-2.9,14.7-5.5
			c3.3-1.9,6.3-2.8,8.9-2.6c2.6,0.2,4.6,1.2,6.1,2.8c1.5,1.6,2.4,3.7,2.7,6c0.3,2.4-0.2,4.8-1.3,7.2c-1.2,2.4-3.2,4.6-6.1,6.4
			c-5.6,3.6-12,6.3-19.2,8C162.3,457.5,155.6,458.4,149.4,458.4z"/>
		<path class="st0" d="M274.4,458.4c-10.4,0-19-1.8-25.9-5.4c-6.9-3.6-12.1-8.9-15.4-15.9s-5-15.6-5-25.9v-52.4h-12.5
			c-3.8,0-6.8-1-8.9-3.1c-2.1-2-3.1-4.9-3.1-8.5c0-3.7,1-6.6,3.1-8.6c2.1-1.9,5-3,8.9-3h12.5v-22.3c0-5.1,1.3-8.9,4-11.6
			c2.6-2.6,6.3-4,11.1-4s8.4,1.3,11,4c2.6,2.6,3.8,6.5,3.8,11.6v22.4h25.3c3.8,0,6.8,1,8.9,3c2.1,1.9,3.1,4.8,3.1,8.6
			c0,3.6-1,6.5-3.1,8.5c-2.1,2-5,3.1-8.9,3.1H258v50.7c0,7.9,1.6,13.8,5,17.7c3.3,4,8.8,5.9,16.3,5.9c2.7,0,5.1-0.2,7.2-0.7
			c2.1-0.5,3.9-0.9,5.5-1c1.9-0.2,3.5,0.5,4.7,1.9s1.9,4.2,1.9,8.5c0,3.3-0.5,6.2-1.6,8.7c-1,2.6-2.9,4.3-5.6,5.3
			c-2.1,0.6-4.7,1.2-8.1,1.9C279.9,458.1,276.9,458.4,274.4,458.4z"/>
		<path class="st0" d="M351.1,458.4c-8.5,0-16-1.7-22.6-5.1c-6.6-3.3-11.8-7.9-15.6-13.6c-3.7-5.8-5.6-12.2-5.6-19.5
			c0-8.9,2.3-15.9,6.7-21c4.4-5.1,11.7-8.9,21.7-11.2c10-2.3,23.5-3.4,40.4-3.4h12v17.7h-11.7c-9.9,0-17.7,0.5-23.7,1.5
			c-5.9,1-10,2.6-12.5,5.1c-2.5,2.4-3.7,5.7-3.7,10c0,5.4,1.9,9.8,5.5,13.3c3.7,3.4,8.8,5.1,15.3,5.1c5.3,0,9.9-1.2,14-3.8
			c4-2.6,7.3-6,9.7-10.4c2.3-4.4,3.6-9.5,3.6-15.3v-28.2c0-8.2-1.8-14.1-5.3-17.7c-3.5-3.6-9.4-5.4-17.7-5.4
			c-4.6,0-9.6,0.5-14.9,1.7c-5.4,1.2-11,3.1-16.8,5.9c-3,1.5-5.7,1.9-8,1.2c-2.3-0.6-4.1-2-5.4-4c-1.2-2-1.9-4.3-1.9-6.8
			s0.6-4.9,1.9-7.2c1.2-2.4,3.4-4.1,6.5-5.3c7.3-3.1,14.4-5.3,21.2-6.6s12.9-1.9,18.5-1.9c11.4,0,20.9,1.8,28.3,5.4
			c7.4,3.6,12.9,9,16.6,16.3c3.7,7.3,5.5,16.7,5.5,28.2v59c0,5.1-1.2,8.9-3.6,11.7s-5.8,4-10.3,4c-4.4,0-7.9-1.3-10.4-4
			c-2.5-2.7-3.7-6.6-3.7-11.7v-11.8h1.9c-1.1,5.8-3.3,10.7-6.5,14.9c-3.3,4.2-7.4,7.4-12.3,9.7C363.1,457.2,357.4,458.4,351.1,458.4
			z"/>
		<path class="st0" d="M497.8,502.6c-8.6,0-17-0.9-25-2.5c-8-1.6-15.3-4.2-21.9-7.6c-3-1.6-5.1-3.6-6.1-5.9c-1-2.3-1.3-4.7-0.9-7
			c0.4-2.4,1.3-4.4,2.9-6.3c1.5-1.8,3.3-3,5.6-3.7c2.3-0.6,4.5-0.3,6.9,1c7,3.6,13.6,5.9,19.9,7c6.3,1.1,11.7,1.6,16.1,1.6
			c10.7,0,18.7-2.6,24-8c5.4-5.3,8-13.2,8-23.7v-22.1h2.2c-2.4,8.3-7.4,15-14.9,20.1c-7.5,5-16.1,7.5-25.7,7.5
			c-10.5,0-19.7-2.5-27.5-7.5c-7.8-5-13.9-12-18.1-21c-4.3-9-6.5-19.5-6.5-31.5c0-9,1.2-17.2,3.7-24.4c2.5-7.3,6-13.5,10.5-18.8
			c4.5-5.2,10-9.3,16.5-12.1c6.5-2.9,13.5-4.3,21.4-4.3c9.9,0,18.5,2.5,25.9,7.5c7.4,5,12.2,11.6,14.5,19.8l-2.4,6.1v-17.4
			c0-5.1,1.3-8.9,4-11.6c2.6-2.6,6.2-4,10.9-4c4.7,0,8.4,1.3,11,4c2.6,2.6,3.8,6.5,3.8,11.6v94.7c0,19.5-5,34.2-15,44
			C531.5,497.7,516.9,502.6,497.8,502.6z M497.1,429.6c6.2,0,11.5-1.5,16-4.4c4.4-3,7.9-7.2,10.4-12.7c2.5-5.5,3.7-12,3.7-19.5
			c0-11.3-2.7-20.2-8.1-26.7c-5.4-6.5-12.8-9.7-21.9-9.7c-6.2,0-11.5,1.5-16,4.4c-4.4,3-7.9,7.2-10.4,12.5
			c-2.5,5.4-3.7,11.9-3.7,19.5c0,11.3,2.7,20.2,8.1,26.8C480.5,426.3,487.8,429.6,497.1,429.6z"/>
	</g>
</g>
</svg>
